<svg width="25" height="27" viewBox="0 0 25 27" fill="none" xmlns="http://www.w3.org/2000/svg">
<path d="M24.66 22.7834L19.7915 17.721C19.5717 17.4925 19.2739 17.3655 18.9613 17.3655H18.1654C19.5131 15.5731 20.314 13.3187 20.314 10.8662C20.314 5.03196 15.7678 0.304688 10.157 0.304688C4.54623 0.304688 0 5.03196 0 10.8662C0 16.7004 4.54623 21.4276 10.157 21.4276C12.5156 21.4276 14.6837 20.5949 16.4075 19.1935V20.0211C16.4075 20.3461 16.5295 20.6558 16.7493 20.8843L21.6178 25.9467C22.0768 26.424 22.8191 26.424 23.2732 25.9467L24.6551 24.5097C25.1141 24.0324 25.1141 23.2606 24.66 22.7834ZM10.157 17.3655C6.70459 17.3655 3.90654 14.4611 3.90654 10.8662C3.90654 7.27627 6.69971 4.36679 10.157 4.36679C13.6094 4.36679 16.4075 7.27119 16.4075 10.8662C16.4075 14.456 13.6143 17.3655 10.157 17.3655Z" fill="#A0A2A5"/>
</svg>
