<svg width="31" height="24" viewBox="0 0 31 24" fill="none" xmlns="http://www.w3.org/2000/svg">
<path d="M13.4471 23.9766L10.5063 23.1469C10.1977 23.0625 10.0242 22.7484 10.111 22.4484L16.6917 0.406101C16.7785 0.106078 17.1015 -0.0626848 17.41 0.0216966L20.3509 0.851447C20.6594 0.935828 20.833 1.24991 20.7462 1.54994L14.1655 23.5922C14.0739 23.8922 13.7557 24.0657 13.4471 23.9766ZM7.95112 18.7169L10.0483 16.5417C10.27 16.312 10.2556 15.9463 10.0097 15.7354L5.64184 11.9992L10.0097 8.26294C10.2556 8.05199 10.2749 7.68634 10.0483 7.45663L7.95112 5.28147C7.73417 5.05645 7.36777 5.04239 7.13154 5.25803L0.184405 11.5866C-0.0614684 11.807 -0.0614684 12.1867 0.184405 12.407L7.13154 18.7403C7.36777 18.9559 7.73417 18.9466 7.95112 18.7169ZM23.7256 18.745L30.6727 12.4117C30.9186 12.1914 30.9186 11.8116 30.6727 11.5913L23.7256 5.25334C23.4942 5.04239 23.1278 5.05176 22.906 5.27678L20.8089 7.45194C20.5871 7.68165 20.6016 8.0473 20.8474 8.25825L25.2153 11.9992L20.8474 15.7354C20.6016 15.9463 20.5823 16.312 20.8089 16.5417L22.906 18.7169C23.123 18.9466 23.4894 18.9559 23.7256 18.745Z" fill="#3BA0AE"/>
</svg>
