<svg width="13" height="14" viewBox="0 0 13 14" fill="none" xmlns="http://www.w3.org/2000/svg">
<g clip-path="url(#clip0_14_142)">
<path d="M4.92379 5.14657C5.05114 4.78456 5.3025 4.4793 5.63335 4.28485C5.9642 4.09041 6.35319 4.01933 6.73143 4.08421C7.10966 4.14908 7.45273 4.34573 7.69987 4.63932C7.94702 4.9329 8.08228 5.30448 8.08171 5.68824C8.08171 6.77157 6.45671 7.31324 6.45671 7.31324M6.50004 9.4799H6.50546M11.9167 6.77157C11.9167 9.76311 9.49158 12.1882 6.50004 12.1882C3.5085 12.1882 1.08337 9.76311 1.08337 6.77157C1.08337 3.78003 3.5085 1.3549 6.50004 1.3549C9.49158 1.3549 11.9167 3.78003 11.9167 6.77157Z" stroke="#98A2B3" stroke-width="1.33333" stroke-linecap="round" stroke-linejoin="round"/>
</g>
<defs>
<clipPath id="clip0_14_142">
<rect width="13" height="13" fill="white" transform="translate(0 0.271576)"/>
</clipPath>
</defs>
</svg>
