<svg width="23" height="24" viewBox="0 0 23 24" fill="none" xmlns="http://www.w3.org/2000/svg">
<path d="M22.7062 14.8839L20.6427 13.6935C20.851 12.571 20.851 11.4194 20.6427 10.2968L22.7062 9.10646C22.9436 8.97098 23.0501 8.69034 22.9726 8.42905C22.435 6.70647 21.5195 5.14841 20.323 3.85164C20.1389 3.65326 19.8386 3.60487 19.6061 3.74035L17.5426 4.93067C16.6755 4.18551 15.6777 3.60971 14.5975 3.23229V0.856494C14.5975 0.585527 14.4086 0.348431 14.1422 0.290367C12.3644 -0.106406 10.5431 -0.0870511 8.85258 0.290367C8.58617 0.348431 8.39725 0.585527 8.39725 0.856494V3.23713C7.3219 3.61939 6.32405 4.19519 5.45214 4.93551L3.39347 3.74519C3.15612 3.60971 2.86064 3.65326 2.67657 3.85648C1.48012 5.14841 0.564614 6.70647 0.026938 8.43388C-0.0554088 8.69517 0.0560016 8.97582 0.293354 9.1113L2.35687 10.3016C2.14858 11.4242 2.14858 12.5758 2.35687 13.6984L0.293354 14.8887C0.0560016 15.0242 -0.0505649 15.3048 0.026938 15.5661C0.564614 17.2887 1.48012 18.8467 2.67657 20.1435C2.86064 20.3419 3.16096 20.3903 3.39347 20.2548L5.45699 19.0645C6.32405 19.8096 7.3219 20.3855 8.4021 20.7629V23.1435C8.4021 23.4145 8.59101 23.6516 8.85743 23.7096C10.6351 24.1064 12.4565 24.0871 14.147 23.7096C14.4134 23.6516 14.6023 23.4145 14.6023 23.1435V20.7629C15.6777 20.3806 16.6755 19.8048 17.5474 19.0645L19.611 20.2548C19.8483 20.3903 20.1438 20.3467 20.3279 20.1435C21.5243 18.8516 22.4398 17.2935 22.9775 15.5661C23.0501 15.3 22.9436 15.0193 22.7062 14.8839ZM11.4974 15.8661C9.36119 15.8661 7.62222 14.129 7.62222 11.9952C7.62222 9.8613 9.36119 8.12421 11.4974 8.12421C13.6335 8.12421 15.3725 9.8613 15.3725 11.9952C15.3725 14.129 13.6335 15.8661 11.4974 15.8661Z" fill="#7D97BC"/>
</svg>
