<svg width="33" height="32" viewBox="0 0 33 32" fill="none" xmlns="http://www.w3.org/2000/svg">
<path d="M0.421021 3.2C0.421021 2.35131 0.758162 1.53737 1.35828 0.937258C1.9584 0.337142 2.77233 0 3.62102 0L8.95435 0V8.53333H0.421021V3.2ZM0.421021 10.6667V28.8C0.421021 29.6487 0.758162 30.4626 1.35828 31.0627C1.9584 31.6629 2.77233 32 3.62102 32H8.95435V10.6667H0.421021ZM11.0877 32H29.221C30.0697 32 30.8836 31.6629 31.4838 31.0627C32.0839 30.4626 32.421 29.6487 32.421 28.8V10.6667H11.0877V32ZM32.421 8.53333V3.2C32.421 2.35131 32.0839 1.53737 31.4838 0.937258C30.8836 0.337142 30.0697 0 29.221 0L11.0877 0V8.53333H32.421Z" fill="#BBBBBB"/>
</svg>
