<svg width="16" height="16" viewBox="0 0 16 16" fill="none" xmlns="http://www.w3.org/2000/svg">
<path d="M7.84602 0C3.74431 0 0.421021 3.5298 0.421021 7.88639C0.421021 12.243 3.74431 15.7728 7.84602 15.7728C11.9477 15.7728 15.271 12.243 15.271 7.88639C15.271 3.5298 11.9477 0 7.84602 0ZM12.1573 8.77679C12.1573 8.98667 11.9956 9.15839 11.798 9.15839H9.0436V12.084C9.0436 12.2939 8.88193 12.4656 8.68433 12.4656H7.00771C6.81011 12.4656 6.64844 12.2939 6.64844 12.084V9.15839H3.894C3.6964 9.15839 3.53473 8.98667 3.53473 8.77679V6.99599C3.53473 6.78611 3.6964 6.61439 3.894 6.61439H6.64844V3.6888C6.64844 3.47892 6.81011 3.3072 7.00771 3.3072H8.68433C8.88193 3.3072 9.0436 3.47892 9.0436 3.6888V6.61439H11.798C11.9956 6.61439 12.1573 6.78611 12.1573 6.99599V8.77679Z" fill="#F7FAFF"/>
</svg>
