<svg width="20" height="17" viewBox="0 0 20 17" fill="none" xmlns="http://www.w3.org/2000/svg">
<path d="M18.5626 3.65016C18.5608 3.13153 18.3193 2.63387 17.8893 2.26257C17.4593 1.89128 16.8746 1.6755 16.2589 1.66094C15.6433 1.64639 15.0451 1.83419 14.591 2.18458C14.137 2.53497 13.8627 3.02043 13.8263 3.53816L6.44182 4.78166C6.26917 4.47947 6.00884 4.2188 5.6849 4.02376C5.36096 3.82871 4.98387 3.70558 4.58846 3.66574C4.19306 3.6259 3.79211 3.67063 3.42267 3.79581C3.05323 3.92099 2.72722 4.12258 2.47478 4.38193C2.22233 4.64129 2.0516 4.95005 1.97836 5.27968C1.90511 5.6093 1.93172 5.94916 2.05572 6.26783C2.17973 6.58651 2.39712 6.87371 2.68782 7.10291C2.97851 7.33211 3.33313 7.49591 3.71889 7.57916V11.7212C3.31371 11.8086 2.94323 11.9848 2.64505 12.2318C2.34688 12.4788 2.13163 12.7878 2.02117 13.1275C1.9107 13.4673 1.90896 13.8255 2.01611 14.166C2.12326 14.5065 2.33548 14.817 2.63124 15.0661C2.927 15.3151 3.29575 15.4938 3.70006 15.5841C4.10437 15.6743 4.52983 15.6728 4.93324 15.5798C5.33666 15.4868 5.70366 15.3055 5.99698 15.0544C6.2903 14.8033 6.4995 14.4914 6.60332 14.1502H11.5219C11.6207 14.4752 11.8151 14.7741 12.0873 15.0191C12.3595 15.2641 12.7007 15.4474 13.0793 15.5519C13.4578 15.6565 13.8616 15.679 14.2533 15.6173C14.6449 15.5557 15.0118 15.4118 15.3199 15.1991C15.6281 14.9864 15.8676 14.7117 16.0162 14.4005C16.1649 14.0892 16.218 13.7513 16.1705 13.4182C16.1231 13.0851 15.9767 12.7674 15.7448 12.4945C15.5129 12.2217 15.2031 12.0025 14.844 11.8572L16.3206 5.63866C16.9251 5.61071 17.494 5.38922 17.9108 5.01953C18.3276 4.64984 18.5608 4.15993 18.5626 3.65016ZM16.1876 2.65016C16.4225 2.65016 16.6521 2.70881 16.8474 2.81869C17.0427 2.92857 17.1949 3.08475 17.2847 3.26747C17.3746 3.4502 17.3981 3.65127 17.3523 3.84525C17.3065 4.03923 17.1934 4.21741 17.0273 4.35726C16.8612 4.49712 16.6497 4.59236 16.4193 4.63094C16.189 4.66953 15.9502 4.64973 15.7332 4.57404C15.5162 4.49835 15.3307 4.37018 15.2003 4.20573C15.0698 4.04128 15.0001 3.84794 15.0001 3.65016C15.0005 3.38502 15.1257 3.13082 15.3483 2.94334C15.5709 2.75586 15.8728 2.65042 16.1876 2.65016ZM3.12514 5.65016C3.12514 5.45238 3.19478 5.25904 3.32527 5.09459C3.45575 4.93014 3.64121 4.80197 3.8582 4.72628C4.07519 4.65059 4.31395 4.63079 4.54431 4.66937C4.77466 4.70796 4.98625 4.8032 5.15233 4.94305C5.3184 5.0829 5.4315 5.26109 5.47732 5.45507C5.52314 5.64905 5.49962 5.85012 5.40974 6.03284C5.31986 6.21557 5.16766 6.37175 4.97238 6.48163C4.77709 6.59151 4.5475 6.65016 4.31264 6.65016C3.99779 6.64989 3.69593 6.54445 3.47329 6.35697C3.25066 6.16949 3.12545 5.91529 3.12514 5.65016ZM4.31264 14.6502C4.07777 14.6502 3.84818 14.5915 3.6529 14.4816C3.45761 14.3717 3.30541 14.2156 3.21553 14.0328C3.12565 13.8501 3.10213 13.649 3.14795 13.4551C3.19377 13.2611 3.30687 13.0829 3.47295 12.9431C3.63902 12.8032 3.85061 12.708 4.08097 12.6694C4.31132 12.6308 4.55009 12.6506 4.76707 12.7263C4.98406 12.802 5.16952 12.9301 5.30001 13.0946C5.43049 13.259 5.50014 13.4524 5.50014 13.6502C5.49982 13.9153 5.37461 14.1695 5.15198 14.357C4.92935 14.5445 4.62748 14.6499 4.31264 14.6502ZM11.5219 13.1502H6.60332C6.49697 12.8064 6.28364 12.4927 5.98535 12.2416C5.68706 11.9904 5.3146 11.8107 4.90639 11.7212V7.57916C5.39151 7.4729 5.82405 7.2397 6.14171 6.91316C6.45937 6.58663 6.64574 6.18361 6.67398 5.76216L14.0584 4.51866C14.2912 4.92177 14.6777 5.24748 15.1563 5.44366L13.6796 11.6617C13.1792 11.6854 12.7006 11.8424 12.3128 12.1099C11.9251 12.3774 11.6481 12.7416 11.5219 13.1502ZM13.8126 14.6502C13.5778 14.6502 13.3482 14.5915 13.1529 14.4816C12.9576 14.3717 12.8054 14.2156 12.7155 14.0328C12.6256 13.8501 12.6021 13.649 12.648 13.4551C12.6938 13.2611 12.8069 13.0829 12.9729 12.9431C13.139 12.8032 13.3506 12.708 13.581 12.6694C13.8113 12.6308 14.0501 12.6506 14.2671 12.7263C14.4841 12.802 14.6695 12.9301 14.8 13.0946C14.9305 13.259 15.0001 13.4524 15.0001 13.6502C14.9998 13.9153 14.8746 14.1695 14.652 14.357C14.4293 14.5445 14.1275 14.6499 13.8126 14.6502Z" fill="#288A97"/>
</svg>
