<svg width="14" height="15" viewBox="0 0 14 15" fill="none" xmlns="http://www.w3.org/2000/svg">
<g clip-path="url(#clip0_598_2379)">
<path d="M12.3526 4.00938L8.99014 0.646875C8.89639 0.553125 8.76982 0.5 8.63701 0.5H1.99951C1.72295 0.5 1.49951 0.723437 1.49951 1V14C1.49951 14.2766 1.72295 14.5 1.99951 14.5H11.9995C12.2761 14.5 12.4995 14.2766 12.4995 14V4.36406C12.4995 4.23125 12.4464 4.10313 12.3526 4.00938ZM11.3464 4.59375H8.40576V1.65313L11.3464 4.59375ZM11.3745 13.375H2.62451V1.625H7.34326V5C7.34326 5.17405 7.4124 5.34097 7.53547 5.46404C7.65854 5.58711 7.82546 5.65625 7.99951 5.65625H11.3745V13.375ZM6.87451 9.15625H3.99951C3.93076 9.15625 3.87451 9.2125 3.87451 9.28125V10.0312C3.87451 10.1 3.93076 10.1562 3.99951 10.1562H6.87451C6.94326 10.1562 6.99951 10.1 6.99951 10.0312V9.28125C6.99951 9.2125 6.94326 9.15625 6.87451 9.15625ZM3.87451 7.15625V7.90625C3.87451 7.975 3.93076 8.03125 3.99951 8.03125H9.99951C10.0683 8.03125 10.1245 7.975 10.1245 7.90625V7.15625C10.1245 7.0875 10.0683 7.03125 9.99951 7.03125H3.99951C3.93076 7.03125 3.87451 7.0875 3.87451 7.15625Z" fill="#E9BD94"/>
</g>
<defs>
<clipPath id="clip0_598_2379">
<rect width="14" height="14" fill="white" transform="translate(0 0.5)"/>
</clipPath>
</defs>
</svg>
