<svg width="29" height="32" viewBox="0 0 29 32" fill="none" xmlns="http://www.w3.org/2000/svg">
<rect width="29" height="32" rx="5" fill="#C66565"/>
<path d="M15.125 14.625H18.5625L15.125 11.1875V14.625ZM10.75 10.25H15.75L19.5 14V21.5C19.5 21.8315 19.3683 22.1495 19.1339 22.3839C18.8995 22.6183 18.5815 22.75 18.25 22.75H10.75C10.4185 22.75 10.1005 22.6183 9.86612 22.3839C9.6317 22.1495 9.5 21.8315 9.5 21.5V11.5C9.5 10.8062 10.0562 10.25 10.75 10.25ZM13.5625 15.875C12 15.875 10.75 17.125 10.75 18.6875C10.75 20.25 12 21.5 13.5625 21.5C15.125 21.5 16.375 20.25 16.375 18.6875C16.375 17.125 15.125 15.875 13.5625 15.875ZM13.5625 16.8125C14.0598 16.8125 14.5367 17.01 14.8883 17.3617C15.24 17.7133 15.4375 18.1902 15.4375 18.6875C15.4375 19.0375 15.3438 19.3625 15.175 19.625L12.625 17.075C12.8875 16.9062 13.2125 16.8125 13.5625 16.8125ZM11.6875 18.6875C11.6875 18.3375 11.7812 18.0125 11.95 17.75L14.5 20.3C14.2375 20.4688 13.9125 20.5625 13.5625 20.5625C13.0652 20.5625 12.5883 20.365 12.2367 20.0133C11.885 19.6617 11.6875 19.1848 11.6875 18.6875Z" fill="#FCFCFF"/>
</svg>
