<svg width="30" height="32" viewBox="0 0 30 32" fill="none" xmlns="http://www.w3.org/2000/svg">
<rect width="30" height="32" rx="5" fill="#6289AD"/>
<path d="M15.5489 19.082C15.2042 19.082 15.0049 19.4094 15.0049 19.846C15.0049 20.2867 15.2122 20.5967 15.5515 20.5967C15.8962 20.5967 16.0929 20.27 16.0929 19.8327C16.0929 19.43 15.8989 19.082 15.5489 19.082Z" fill="#FCFCFF"/>
<path d="M16.3337 10.334H11.0003C10.6467 10.334 10.3076 10.4745 10.0575 10.7245C9.80747 10.9746 9.66699 11.3137 9.66699 11.6673V22.334C9.66699 22.6876 9.80747 23.0267 10.0575 23.2768C10.3076 23.5268 10.6467 23.6673 11.0003 23.6673H19.0003C19.3539 23.6673 19.6931 23.5268 19.9431 23.2768C20.1932 23.0267 20.3337 22.6876 20.3337 22.334V14.334L16.3337 10.334ZM12.3483 20.1367C12.3483 20.7773 12.041 21.0007 11.5483 21.0007C11.431 21.0007 11.2777 20.9813 11.177 20.9473L11.2343 20.5373C11.3037 20.5607 11.3937 20.5773 11.495 20.5773C11.7077 20.5773 11.8417 20.4807 11.8417 20.1307V18.716H12.349L12.3483 20.1367ZM13.321 20.9973C13.0643 20.9973 12.8103 20.9307 12.6843 20.8607L12.7877 20.44C12.9237 20.51 13.135 20.5807 13.3517 20.5807C13.585 20.5807 13.7077 20.4833 13.7077 20.3373C13.7077 20.1967 13.6017 20.1167 13.3317 20.02C12.957 19.89 12.7137 19.6827 12.7137 19.356C12.7137 18.972 13.0343 18.678 13.565 18.678C13.8183 18.678 14.0043 18.7313 14.139 18.792L14.0243 19.202C13.9343 19.1587 13.7743 19.0953 13.5543 19.0953C13.3343 19.0953 13.227 19.1953 13.227 19.312C13.227 19.4553 13.3537 19.5193 13.645 19.6293C14.0423 19.776 14.229 19.9827 14.229 20.3C14.2297 20.6773 13.9383 20.9973 13.321 20.9973ZM15.525 21.0007C14.8577 21.0007 14.4677 20.4973 14.4677 19.8567C14.4677 19.182 14.8983 18.678 15.5623 18.678C16.2523 18.678 16.6297 19.1953 16.6297 19.816C16.629 20.554 16.1823 21.0007 15.525 21.0007ZM18.823 20.964H18.2883L17.8077 20.096C17.6639 19.8385 17.5337 19.5737 17.4177 19.3027L17.407 19.306C17.421 19.6027 17.4277 19.92 17.4277 20.2873V20.9647H16.9603V18.716H17.5543L18.0217 19.54C18.155 19.776 18.2883 20.0567 18.3897 20.31H18.399C18.3657 20.0133 18.3557 19.71 18.3557 19.3727V18.716H18.8237L18.823 20.964ZM16.3337 15.0007H15.667V11.6673L19.0003 15.0007H16.3337Z" fill="#FCFCFF"/>
</svg>
