<svg width="30" height="32" viewBox="0 0 30 32" fill="none" xmlns="http://www.w3.org/2000/svg">
<rect width="30" height="32" rx="5" fill="#62AD97"/>
<g clip-path="url(#clip0_703_5641)">
<path fill-rule="evenodd" clip-rule="evenodd" d="M10.75 10.25C10.4185 10.25 10.1005 10.3817 9.86612 10.6161C9.6317 10.8505 9.5 11.1685 9.5 11.5V21.5C9.5 21.8315 9.6317 22.1495 9.86612 22.3839C10.1005 22.6183 10.4185 22.75 10.75 22.75H18.25C18.5815 22.75 18.8995 22.6183 19.1339 22.3839C19.3683 22.1495 19.5 21.8315 19.5 21.5V13.0087C19.4999 12.6773 19.3682 12.3594 19.1337 12.125L17.625 10.6162C17.3906 10.3818 17.0727 10.2501 16.7413 10.25H10.75ZM17.1488 15.7456C17.2084 15.688 17.2561 15.619 17.2888 15.5428C17.3216 15.4665 17.3388 15.3845 17.3395 15.3015C17.3403 15.2185 17.3244 15.1362 17.293 15.0594C17.2616 14.9826 17.2152 14.9128 17.1565 14.8541C17.0978 14.7954 17.028 14.749 16.9512 14.7176C16.8744 14.6862 16.7921 14.6704 16.7091 14.6711C16.6261 14.6718 16.5441 14.6891 16.4679 14.7218C16.3916 14.7546 16.3227 14.8022 16.265 14.8619L13.6137 17.5138L12.7294 16.6294C12.6115 16.5155 12.4536 16.4525 12.2897 16.454C12.1259 16.4554 11.9691 16.5211 11.8532 16.637C11.7374 16.7529 11.6716 16.9096 11.6702 17.0735C11.6688 17.2374 11.7318 17.3952 11.8456 17.5131L13.1269 18.795C13.1907 18.8589 13.2665 18.9095 13.35 18.9441C13.4334 18.9787 13.5228 18.9965 13.6131 18.9965C13.7034 18.9965 13.7929 18.9787 13.8763 18.9441C13.9597 18.9095 14.0355 18.8589 14.0994 18.795L17.1488 15.7456Z" fill="#FCFCFF"/>
</g>
<defs>
<clipPath id="clip0_703_5641">
<rect width="17" height="17" fill="white" transform="translate(9 8)"/>
</clipPath>
</defs>
</svg>
