<svg width="16" height="16" viewBox="0 0 16 16" fill="none" xmlns="http://www.w3.org/2000/svg">
<g id="majesticons:home">
<path id="Vector" d="M13.3337 12.6673V7.00065C13.3337 6.89715 13.3096 6.79508 13.2633 6.70251C13.217 6.60994 13.1498 6.52942 13.067 6.46732L8.40033 2.96732C8.28493 2.88077 8.14457 2.83398 8.00033 2.83398C7.85608 2.83398 7.71572 2.88077 7.60033 2.96732L2.93366 6.46732C2.85086 6.52942 2.78366 6.60994 2.73737 6.70251C2.69109 6.79508 2.66699 6.89715 2.66699 7.00065V12.6673C2.66699 12.8441 2.73723 13.0137 2.86225 13.1387C2.98728 13.2637 3.15685 13.334 3.33366 13.334H6.00033C6.17714 13.334 6.34671 13.2637 6.47173 13.1387C6.59675 13.0137 6.66699 12.8441 6.66699 12.6673V10.6673C6.66699 10.4905 6.73723 10.3209 6.86225 10.1959C6.98728 10.0709 7.15685 10.0007 7.33366 10.0007H8.66699C8.8438 10.0007 9.01337 10.0709 9.1384 10.1959C9.26342 10.3209 9.33366 10.4905 9.33366 10.6673V12.6673C9.33366 12.8441 9.4039 13.0137 9.52892 13.1387C9.65395 13.2637 9.82351 13.334 10.0003 13.334H12.667C12.8438 13.334 13.0134 13.2637 13.1384 13.1387C13.2634 13.0137 13.3337 12.8441 13.3337 12.6673Z" fill="#CDCDCD" stroke="#CDCDCD" stroke-width="2" stroke-linecap="round" stroke-linejoin="round"/>
</g>
</svg>
