<svg width="27" height="28" viewBox="0 0 27 28" fill="none" xmlns="http://www.w3.org/2000/svg">
<path d="M26.4876 8.73379L14.1478 0.202516C13.7266 -0.0662736 13.2771 -0.0687345 12.8521 0.202516L0.512261 8.73379C0.195855 8.95249 0 9.34318 0 9.73376V18.265C0 18.6556 0.195855 19.0463 0.512313 19.265L12.8521 27.7975C13.2733 28.0663 13.7228 28.0687 14.1479 27.7975L26.4877 19.265C26.8041 19.0463 27 18.6556 27 18.265V9.73376C26.9999 9.34318 26.8041 8.95249 26.4876 8.73379ZM14.6601 3.45244L23.7455 9.73376L19.6925 12.5463L14.6601 9.06187V3.45244ZM12.3398 3.45244V9.06187L7.30744 12.5463L3.25444 9.73376L12.3398 3.45244ZM2.32031 11.9838L5.22823 13.9994L2.32031 16.015V11.9838ZM12.3398 24.5464L3.25444 18.265L7.30744 15.4525L12.3398 18.9369V24.5464ZM13.5 16.8432L9.40173 13.9994L13.5 11.1556L17.5982 13.9994L13.5 16.8432ZM14.6601 24.5464V18.9369L19.6925 15.4525L23.7455 18.265L14.6601 24.5464ZM24.6796 16.015L21.7717 13.9994L24.6796 11.9838V16.015Z"/>
</svg>
