<svg width="21" height="26" viewBox="0 0 21 26" fill="none" xmlns="http://www.w3.org/2000/svg">
<path d="M15.75 13H5.25V16.25H15.75V13ZM20.6172 5.33203L15.2633 0.355469C15.0172 0.126953 14.6836 0 14.3336 0H14V6.5H21V6.19023C21 5.87031 20.8633 5.56055 20.6172 5.33203ZM12.25 6.90625V0H1.3125C0.585156 0 0 0.543359 0 1.21875V24.7812C0 25.4566 0.585156 26 1.3125 26H19.6875C20.4148 26 21 25.4566 21 24.7812V8.125H13.5625C12.8406 8.125 12.25 7.57656 12.25 6.90625ZM3.5 3.65625C3.5 3.4318 3.69578 3.25 3.9375 3.25H8.3125C8.55422 3.25 8.75 3.4318 8.75 3.65625V4.46875C8.75 4.6932 8.55422 4.875 8.3125 4.875H3.9375C3.69578 4.875 3.5 4.6932 3.5 4.46875V3.65625ZM3.5 6.90625C3.5 6.6818 3.69578 6.5 3.9375 6.5H8.3125C8.55422 6.5 8.75 6.6818 8.75 6.90625V7.71875C8.75 7.9432 8.55422 8.125 8.3125 8.125H3.9375C3.69578 8.125 3.5 7.9432 3.5 7.71875V6.90625ZM17.5 22.3438C17.5 22.5682 17.3042 22.75 17.0625 22.75H12.6875C12.4458 22.75 12.25 22.5682 12.25 22.3438V21.5312C12.25 21.3068 12.4458 21.125 12.6875 21.125H17.0625C17.3042 21.125 17.5 21.3068 17.5 21.5312V22.3438ZM17.5 12.1875V17.0625C17.5 17.5114 17.1084 17.875 16.625 17.875H4.375C3.89156 17.875 3.5 17.5114 3.5 17.0625V12.1875C3.5 11.7386 3.89156 11.375 4.375 11.375H16.625C17.1084 11.375 17.5 11.7386 17.5 12.1875Z"/>
</svg>
