<svg width="10" height="10" viewBox="0 0 10 10" fill="none" xmlns="http://www.w3.org/2000/svg">
<path d="M9.2498 3.39689C9.2498 5.02484 7.93009 6.34453 6.30215 6.34453C6.11423 6.34453 5.93051 6.32674 5.75236 6.29313L5.35021 6.74556C5.3125 6.78799 5.26623 6.82195 5.21444 6.8452C5.16266 6.86845 5.10654 6.88047 5.04978 6.88047H4.42637V7.55039C4.42637 7.77239 4.24641 7.95234 4.02441 7.95234H3.35449V8.62226C3.35449 8.84426 3.17453 9.02422 2.95254 9.02422H1.07676C0.854762 9.02422 0.674805 8.84426 0.674805 8.62226V7.31493C0.674805 7.20833 0.71716 7.10608 0.792527 7.0307L3.50239 4.32083C3.40654 4.03019 3.35449 3.71963 3.35449 3.39687C3.35449 1.76893 4.67419 0.449235 6.30213 0.449219C7.93488 0.449202 9.2498 1.76412 9.2498 3.39689ZM6.30215 2.59297C6.30215 3.03696 6.66206 3.39687 7.10605 3.39687C7.55005 3.39687 7.90996 3.03696 7.90996 2.59297C7.90996 2.14898 7.55005 1.78906 7.10605 1.78906C6.66206 1.78906 6.30215 2.14898 6.30215 2.59297Z" fill="#B9877C"/>
</svg>
