<svg width="9" height="10" viewBox="0 0 9 10" fill="none" xmlns="http://www.w3.org/2000/svg">
<path d="M8.575 3.39689C8.575 5.02484 7.25529 6.34453 5.62734 6.34453C5.43943 6.34453 5.2557 6.32674 5.07756 6.29313L4.6754 6.74556C4.63769 6.78799 4.59142 6.82195 4.53964 6.8452C4.48786 6.86845 4.43174 6.88047 4.37497 6.88047H3.75156V7.55039C3.75156 7.77239 3.5716 7.95234 3.34961 7.95234H2.67969V8.62226C2.67969 8.84426 2.49973 9.02422 2.27773 9.02422H0.401953C0.179958 9.02422 0 8.84426 0 8.62226V7.31493C0 7.20833 0.0423558 7.10608 0.117722 7.0307L2.82759 4.32083C2.73174 4.03019 2.67969 3.71963 2.67969 3.39687C2.67969 1.76893 3.99938 0.449235 5.62733 0.449219C7.26008 0.449202 8.575 1.76412 8.575 3.39689ZM5.62734 2.59297C5.62734 3.03696 5.98726 3.39687 6.43125 3.39687C6.87524 3.39687 7.23516 3.03696 7.23516 2.59297C7.23516 2.14898 6.87524 1.78906 6.43125 1.78906C5.98726 1.78906 5.62734 2.14898 5.62734 2.59297Z" fill="#81B97C"/>
</svg>
