<svg width="10" height="10" viewBox="0 0 10 10" fill="none" xmlns="http://www.w3.org/2000/svg">
<path d="M9.41289 3.39689C9.41289 5.02484 8.09318 6.34453 6.46523 6.34453C6.27732 6.34453 6.0936 6.32674 5.91545 6.29313L5.51329 6.74556C5.47558 6.78799 5.42931 6.82195 5.37753 6.8452C5.32575 6.86845 5.26963 6.88047 5.21287 6.88047H4.58945V7.55039C4.58945 7.77239 4.4095 7.95234 4.1875 7.95234H3.51758V8.62226C3.51758 8.84426 3.33762 9.02422 3.11562 9.02422H1.23984C1.01785 9.02422 0.837891 8.84426 0.837891 8.62226V7.31493C0.837891 7.20833 0.880246 7.10608 0.955613 7.0307L3.66548 4.32083C3.56963 4.03019 3.51758 3.71963 3.51758 3.39687C3.51758 1.76893 4.83727 0.449235 6.46522 0.449219C8.09797 0.449202 9.41289 1.76412 9.41289 3.39689ZM6.46523 2.59297C6.46523 3.03696 6.82515 3.39687 7.26914 3.39687C7.71313 3.39687 8.07305 3.03696 8.07305 2.59297C8.07305 2.14898 7.71313 1.78906 7.26914 1.78906C6.82515 1.78906 6.46523 2.14898 6.46523 2.59297Z" fill="#73C5D0"/>
</svg>
